<?xml version="1.0" encoding="UTF-8"?>
<svg id="Layer_2" data-name="Layer 2" xmlns="http://www.w3.org/2000/svg" viewBox="0 0 397.25 248.98">
    <defs>
        <style>
            .cls-1 {
            fill: #fff;
            }
        </style>
    </defs>
    <g id="Layer_2-2" data-name="Layer 2">
        <g>
            <g>
                <path class="cls-1" d="m233.94,38.28h-29.85v-5.75c6.54-2.28,11.24-8.48,11.24-15.79,0-9.24-7.49-16.74-16.74-16.74s-16.74,7.49-16.74,16.74c0,7.31,4.7,13.52,11.24,15.79v5.75h-29.85c-30.44,0-55.2,24.76-55.2,55.2s24.76,55.2,55.2,55.2h70.7c30.44,0,55.2-24.76,55.2-55.2s-24.76-55.2-55.2-55.2Zm-35.35-27.28c3.16,0,5.74,2.57,5.74,5.74s-2.57,5.74-5.74,5.74-5.74-2.57-5.74-5.74,2.57-5.74,5.74-5.74Zm35.35,126.68h-70.7c-24.37,0-44.2-19.83-44.2-44.2s19.83-44.2,44.2-44.2h70.7c24.37,0,44.2,19.83,44.2,44.2s-19.83,44.2-44.2,44.2Z"/>
                <path class="cls-1" d="m159.6,64.46c-15.07,0-27.29,12.22-27.29,27.29s12.22,27.29,27.29,27.29,27.29-12.22,27.29-27.29-12.22-27.29-27.29-27.29Zm0,43.58c-8.98,0-16.29-7.31-16.29-16.29s7.31-16.29,16.29-16.29,16.29,7.31,16.29,16.29-7.31,16.29-16.29,16.29Z"/>
                <path class="cls-1" d="m237.58,64.46c-15.07,0-27.29,12.22-27.29,27.29s12.22,27.29,27.29,27.29,27.29-12.22,27.29-27.29-12.22-27.29-27.29-27.29Zm0,43.58c-8.98,0-16.29-7.31-16.29-16.29s7.31-16.29,16.29-16.29,16.29,7.31,16.29,16.29-7.31,16.29-16.29,16.29Z"/>
                <path class="cls-1" d="m206.8,119.17c-1.92,1.77-4.71,2.67-8.3,2.67s-6.28-.87-8.2-2.57c-2.27-2.02-5.74-1.82-7.77.44-2.02,2.27-1.82,5.74.45,7.77,2.74,2.45,7.66,5.36,15.52,5.36s13.01-3.04,15.77-5.59c2.23-2.06,2.37-5.54.31-7.77-2.06-2.23-5.54-2.37-7.77-.31Z"/>
            </g>
            <g>
                <path class="cls-1" d="m0,229.28v-64.14h24.65c4.83,0,9.28.81,13.38,2.43,4.09,1.62,7.67,3.89,10.72,6.83,3.05,2.93,5.45,6.35,7.19,10.26,1.74,3.91,2.61,8.12,2.61,12.64s-.86,8.8-2.57,12.64c-1.71,3.85-4.11,7.22-7.19,10.12-3.09,2.9-6.67,5.16-10.77,6.78-4.09,1.62-8.55,2.43-13.38,2.43H0Zm13.29-11.82h11.18c2.87,0,5.54-.5,8.02-1.51,2.47-1.01,4.64-2.43,6.51-4.26,1.86-1.83,3.3-3.97,4.31-6.41,1.01-2.44,1.51-5.1,1.51-7.97s-.52-5.54-1.56-8.02c-1.04-2.47-2.47-4.63-4.31-6.46-1.83-1.83-3.99-3.27-6.46-4.31-2.47-1.04-5.15-1.56-8.02-1.56h-11.18v40.5Z"/>
                <path class="cls-1" d="m88.94,230.19c-4.76,0-9.09-1.1-12.96-3.3-3.88-2.2-6.95-5.16-9.21-8.89-2.26-3.73-3.39-7.91-3.39-12.55s1.08-8.83,3.25-12.55c2.17-3.73,5.12-6.69,8.84-8.89,3.72-2.2,7.88-3.3,12.46-3.3s8.64,1.13,12.19,3.39c3.54,2.26,6.34,5.31,8.38,9.16,2.05,3.85,3.07,8.22,3.07,13.1v3.3h-35.37c.55,1.89,1.45,3.61,2.7,5.13,1.25,1.53,2.81,2.72,4.67,3.57,1.86.86,3.86,1.28,6,1.28s4.11-.34,5.91-1.01c1.8-.67,3.34-1.62,4.63-2.84l8.25,7.51c-2.93,2.38-5.94,4.12-9.03,5.22-3.09,1.1-6.55,1.65-10.4,1.65Zm-12.92-29.5h23.18c-.43-1.89-1.21-3.56-2.34-4.99-1.13-1.43-2.47-2.57-4.03-3.39-1.56-.82-3.28-1.24-5.18-1.24s-3.73.4-5.32,1.19c-1.59.79-2.92,1.91-3.99,3.34-1.07,1.44-1.85,3.13-2.34,5.09Z"/>
                <path class="cls-1" d="m130.88,229.28l-20.43-47.74h13.65l13.1,31.79,13.01-31.79h13.38l-20.52,47.74h-12.19Z"/>
                <path class="cls-1" d="m201.25,230.19c-4.76,0-9.22-.84-13.38-2.52-4.15-1.68-7.77-4.02-10.86-7.01-3.09-2.99-5.5-6.49-7.24-10.49-1.74-4-2.61-8.32-2.61-12.96s.87-9.06,2.61-13.06c1.74-4,4.17-7.5,7.28-10.49,3.12-2.99,6.73-5.33,10.86-7.01,4.12-1.68,8.57-2.52,13.33-2.52,3.54,0,6.96.49,10.26,1.47,3.3.98,6.37,2.35,9.21,4.12,2.84,1.77,5.27,3.91,7.28,6.41l-8.98,8.89c-2.32-2.87-4.99-5.04-8.02-6.51-3.02-1.47-6.28-2.2-9.76-2.2-2.87,0-5.56.54-8.06,1.6-2.5,1.07-4.67,2.54-6.5,4.4-1.83,1.86-3.27,4.06-4.31,6.6-1.04,2.54-1.56,5.3-1.56,8.29s.52,5.67,1.56,8.2c1.04,2.54,2.5,4.73,4.4,6.6,1.89,1.86,4.11,3.31,6.64,4.35,2.53,1.04,5.3,1.56,8.29,1.56,3.36,0,6.51-.7,9.44-2.11,2.93-1.4,5.53-3.42,7.79-6.05l8.7,8.61c-2.02,2.44-4.43,4.55-7.24,6.32-2.81,1.77-5.85,3.13-9.12,4.08-3.27.95-6.61,1.42-10.03,1.42Z"/>
                <path class="cls-1" d="m239.82,248.98c-1.1,0-2.15-.05-3.16-.14-1.01-.09-1.85-.2-2.52-.32v-10.81c1.22.24,2.69.37,4.4.37,4.58,0,7.76-2.17,9.53-6.51l.73-1.83-18.6-48.2h13.84l11.91,32.53,13.47-32.53h13.56l-21.99,51.59c-1.65,3.85-3.45,6.93-5.41,9.25-1.96,2.32-4.2,4-6.73,5.04-2.54,1.04-5.54,1.56-9.03,1.56Z"/>
                <path class="cls-1" d="m307,230.19c-4.7,0-8.95-1.08-12.74-3.25-3.79-2.17-6.78-5.13-8.98-8.89-2.2-3.76-3.3-7.96-3.3-12.6s1.1-8.92,3.3-12.64c2.2-3.72,5.19-6.69,8.98-8.89,3.79-2.2,8.03-3.3,12.74-3.3,3.79,0,7.41.73,10.86,2.2,3.45,1.47,6.43,3.57,8.93,6.32l-7.7,8.15c-1.77-1.95-3.62-3.4-5.54-4.35-1.92-.95-4.02-1.42-6.28-1.42-2.44,0-4.63.61-6.55,1.83-1.92,1.22-3.45,2.87-4.58,4.95-1.13,2.08-1.7,4.46-1.7,7.15s.56,4.9,1.7,7.01c1.13,2.11,2.7,3.76,4.72,4.95s4.24,1.79,6.69,1.79c2.14,0,4.14-.44,6-1.33,1.86-.88,3.65-2.21,5.36-3.99l7.51,7.88c-2.44,2.63-5.38,4.69-8.8,6.18-3.42,1.5-6.96,2.24-10.63,2.24Z"/>
                <path class="cls-1" d="m331.65,229.28v-64.14l12.55-2.11v66.25h-12.55Z"/>
                <path class="cls-1" d="m374.62,230.19c-4.76,0-9.09-1.1-12.96-3.3-3.88-2.2-6.95-5.16-9.21-8.89-2.26-3.73-3.39-7.91-3.39-12.55s1.08-8.83,3.25-12.55c2.17-3.73,5.12-6.69,8.84-8.89,3.72-2.2,7.88-3.3,12.46-3.3s8.64,1.13,12.19,3.39c3.54,2.26,6.34,5.31,8.38,9.16,2.05,3.85,3.07,8.22,3.07,13.1v3.3h-35.37c.55,1.89,1.45,3.61,2.7,5.13,1.25,1.53,2.81,2.72,4.67,3.57,1.86.86,3.86,1.28,6,1.28s4.11-.34,5.91-1.01c1.8-.67,3.34-1.62,4.63-2.84l8.25,7.51c-2.93,2.38-5.94,4.12-9.03,5.22-3.09,1.1-6.55,1.65-10.4,1.65Zm-12.92-29.5h23.18c-.43-1.89-1.21-3.56-2.34-4.99-1.13-1.43-2.47-2.57-4.03-3.39-1.56-.82-3.28-1.24-5.18-1.24s-3.73.4-5.32,1.19c-1.59.79-2.92,1.91-3.99,3.34-1.07,1.44-1.85,3.13-2.34,5.09Z"/>
            </g>
        </g>
    </g>
</svg>
